<?xml version="1.0" standalone="no"?>
<!DOCTYPE svg PUBLIC "-//W3C//DTD SVG 20010904//EN"
 "http://www.w3.org/TR/2001/REC-SVG-20010904/DTD/svg10.dtd">
<svg version="1.0" xmlns="http://www.w3.org/2000/svg"
 width="502.000000pt" height="502.000000pt" viewBox="0 0 502.000000 502.000000"
 preserveAspectRatio="xMidYMid meet">
<metadata>
Created by potrace 1.14, written by Peter Selinger 2001-2017
</metadata>
<g transform="translate(0.000000,502.000000) scale(0.100000,-0.100000)"
fill="#000000" stroke="none">
<path d="M2400 4003 c-30 -96 -38 -220 -16 -276 22 -58 65 -97 123 -112 44
-11 49 -16 68 -61 16 -41 19 -74 20 -204 0 -137 -4 -175 -34 -330 -19 -96 -36
-177 -38 -179 -1 -2 -21 13 -43 33 -22 20 -42 36 -44 36 -3 0 10 -22 29 -50
43 -63 48 -100 35 -235 -5 -60 -10 -184 -10 -274 l0 -164 -48 94 c-87 172
-175 283 -281 357 -34 24 -61 39 -61 35 0 -5 23 -31 50 -58 67 -66 137 -168
195 -285 l47 -95 -63 70 c-175 196 -334 315 -454 340 -24 5 -19 0 22 -23 29
-17 74 -46 101 -65 51 -38 206 -195 260 -264 l33 -43 -95 64 c-180 120 -393
208 -585 240 -106 18 -321 22 -321 6 0 -6 29 -10 68 -10 161 0 368 -54 558
-145 104 -50 281 -162 349 -221 27 -23 23 -22 -41 10 -295 146 -660 197 -994
140 -89 -15 -256 -61 -248 -69 1 -1 48 6 103 18 85 18 136 21 340 21 265 1
341 -10 537 -75 97 -32 325 -136 316 -144 -3 -3 -31 4 -63 15 -79 27 -321 87
-426 104 -252 43 -429 41 -622 -8 -142 -36 -366 -137 -457 -206 l-25 -19 43
-86 c23 -47 42 -87 42 -90 0 -3 -17 -5 -39 -5 -46 0 -70 -22 -51 -45 11 -13
110 -15 784 -15 l771 0 138 86 137 86 142 -91 143 -91 766 0 c810 0 800 -1
783 44 -4 12 -19 16 -55 16 l-49 0 48 96 47 95 -25 19 c-42 32 -180 105 -270
143 -306 130 -595 134 -1055 17 -82 -21 -159 -42 -170 -46 -14 -5 -17 -4 -10
4 19 20 215 102 328 136 181 55 287 70 497 70 105 0 217 -5 259 -12 40 -7 76
-11 78 -8 2 2 -37 14 -88 26 -346 81 -735 30 -1084 -141 -93 -46 -98 -48 -65
-19 61 54 211 150 320 205 179 90 340 140 585 181 l140 24 -130 -4 c-291 -9
-596 -107 -844 -270 -47 -31 -86 -54 -88 -52 -2 1 47 52 110 112 109 107 217
186 344 255 34 18 61 34 59 36 -6 6 -114 -36 -186 -72 -122 -61 -219 -132
-321 -234 l-97 -96 24 54 c46 103 128 224 218 320 l41 44 -34 -19 c-53 -30
-158 -131 -206 -198 -24 -34 -64 -104 -89 -155 -25 -52 -46 -86 -46 -75 0 120
48 532 86 739 26 141 36 168 82 218 30 32 22 35 -19 6 l-29 -20 0 118 c0 129
-14 205 -55 289 l-25 52 27 52 c40 78 44 169 9 237 -27 54 -78 104 -144 141
l-41 23 -21 -68z"/>
<path d="M751 1614 c-20 -14 -21 -24 -21 -158 0 -97 4 -146 12 -154 18 -18 56
-14 68 7 13 25 13 266 0 290 -14 27 -35 32 -59 15z"/>
<path d="M862 1614 c-12 -8 -22 -19 -22 -23 0 -4 22 -45 50 -90 43 -72 49 -91
52 -144 3 -60 4 -62 32 -65 37 -5 46 10 46 75 0 44 7 64 52 139 l52 87 -23 18
c-31 25 -49 14 -86 -55 -16 -31 -32 -56 -35 -56 -3 0 -18 24 -33 54 -31 66
-55 82 -85 60z"/>
<path d="M1237 1616 c-72 -26 -107 -78 -107 -160 0 -89 42 -147 120 -166 124
-30 220 58 208 191 -6 62 -31 97 -88 127 -50 25 -79 27 -133 8z m110 -80 c25
-21 28 -31 28 -81 0 -50 -3 -60 -28 -81 -15 -13 -39 -24 -52 -24 -13 0 -37 11
-52 24 -25 21 -28 31 -28 81 0 50 3 60 28 81 15 13 39 24 52 24 13 0 37 -11
52 -24z"/>
<path d="M1520 1610 c-20 -20 -21 -29 -18 -161 2 -111 6 -142 18 -149 8 -5 56
-10 107 -10 102 0 132 14 113 51 -9 16 -22 19 -80 19 l-69 0 -3 121 c-3 112
-5 123 -25 136 -19 13 -24 12 -43 -7z"/>
<path d="M1867 1616 c-92 -33 -128 -119 -95 -228 39 -130 242 -141 298 -15 47
103 8 213 -89 246 -43 14 -67 13 -114 -3z m115 -86 c28 -28 30 -35 26 -82 -9
-88 -76 -125 -135 -74 -25 21 -28 31 -28 81 0 50 3 60 28 81 38 33 72 31 109
-6z"/>
<path d="M2184 1611 c-47 -22 -70 -63 -59 -111 8 -38 32 -54 114 -76 66 -19
82 -34 61 -59 -20 -24 -73 -19 -100 10 -30 32 -73 31 -78 -2 -4 -31 36 -69 86
-83 96 -25 182 21 182 100 0 57 -30 85 -109 101 -68 13 -91 30 -71 54 19 22
62 18 99 -10 26 -19 38 -22 52 -14 43 22 7 80 -60 99 -50 14 -70 12 -117 -9z"/>
<path d="M2456 1617 c-14 -10 -16 -34 -14 -167 l3 -155 29 -3 c16 -2 32 2 37
10 11 16 12 289 1 304 -12 18 -39 23 -56 11z"/>
<path d="M2566 1618 c-9 -5 -16 -19 -16 -31 0 -24 64 -270 75 -287 9 -14 60
-13 73 3 6 7 16 35 22 62 6 28 16 68 22 90 l11 40 26 -100 26 -100 40 0 40 0
37 145 c21 80 35 152 32 161 -6 23 -41 30 -58 14 -8 -8 -22 -57 -32 -110 -19
-101 -25 -103 -43 -15 -28 132 -38 148 -87 129 -17 -6 -25 -28 -45 -115 l-23
-107 -18 89 c-10 49 -20 99 -23 110 -6 25 -35 36 -59 22z"/>
<path d="M3068 1618 c-20 -15 -121 -281 -116 -306 2 -11 14 -18 35 -20 28 -3
32 1 43 32 11 35 13 36 66 36 52 0 54 -1 68 -35 12 -27 21 -35 40 -35 48 0 47
25 -6 175 -28 77 -53 143 -57 147 -14 15 -57 18 -73 6z m45 -135 c3 -16 9 -36
12 -45 6 -15 1 -18 -28 -18 l-35 0 16 50 c17 53 26 56 35 13z"/>
<path d="M3498 1618 c-20 -15 -121 -281 -116 -306 2 -11 14 -18 35 -20 28 -3
32 1 43 32 11 35 13 36 66 36 52 0 54 -1 68 -35 12 -27 21 -35 40 -35 48 0 47
25 -6 175 -28 77 -53 143 -57 147 -14 15 -57 18 -73 6z m45 -135 c3 -16 9 -36
12 -45 6 -15 1 -18 -28 -18 l-35 0 16 50 c17 53 26 56 35 13z"/>
<path d="M3936 1620 c-89 -27 -132 -145 -90 -250 26 -66 108 -100 187 -79 53
14 89 51 85 87 -5 41 -43 42 -79 3 -34 -37 -59 -39 -96 -7 -25 21 -28 31 -28
81 0 50 3 60 28 81 37 32 61 30 99 -6 17 -16 34 -30 39 -30 21 0 39 14 39 32
0 34 -20 59 -63 79 -45 20 -75 22 -121 9z"/>
<path d="M3712 1358 c-30 -30 0 -75 43 -64 41 11 29 76 -15 76 -9 0 -21 -5
-28 -12z"/>
<path d="M4172 1361 c-8 -5 -12 -21 -10 -37 2 -23 9 -30 30 -32 19 -2 30 3 38
17 21 40 -20 77 -58 52z"/>
<path d="M2252 1254 c-12 -8 -22 -22 -22 -30 0 -8 -11 -19 -24 -24 -77 -29
-86 -166 -12 -211 66 -40 143 -16 170 53 29 72 -1 149 -65 163 l-31 7 21 20
c36 33 6 52 -37 22z m49 -110 c21 -25 17 -93 -6 -110 -46 -34 -90 -7 -90 56 0
46 19 70 55 70 15 0 34 -7 41 -16z"/>
<path d="M741 1196 c-8 -9 -11 -47 -9 -112 l3 -99 88 -3 c80 -3 87 -1 87 17 0
23 -19 31 -76 31 -37 0 -44 3 -44 19 0 17 8 20 53 23 44 3 52 6 52 23 0 17 -8
20 -52 23 -45 3 -53 6 -53 23 0 17 7 19 61 19 57 0 60 1 57 23 -3 20 -9 22
-79 25 -57 2 -79 -1 -88 -12z"/>
<path d="M952 1202 c-9 -6 -12 -36 -10 -113 l3 -104 59 -3 c33 -2 72 2 87 8
32 14 54 59 52 112 -2 51 -18 77 -58 94 -37 15 -112 19 -133 6z m109 -52 c14
-8 19 -21 19 -53 0 -50 -13 -67 -52 -67 -28 0 -28 0 -28 65 0 59 2 65 21 65
11 0 29 -5 40 -10z"/>
<path d="M1174 1186 c-3 -15 -4 -58 -2 -97 3 -64 7 -74 33 -96 25 -22 36 -25
79 -20 73 7 86 27 86 138 0 71 -3 91 -15 95 -31 12 -44 -15 -47 -99 -3 -80 -4
-82 -29 -85 -38 -4 -48 15 -51 103 -3 74 -5 80 -25 83 -17 3 -24 -3 -29 -22z"/>
<path d="M1462 1197 c-12 -7 -29 -23 -38 -36 -19 -27 -22 -108 -5 -139 39 -73
191 -61 191 15 0 30 -40 32 -58 3 -28 -46 -83 -14 -84 48 -1 70 42 95 88 51
26 -25 54 -19 54 10 0 48 -93 78 -148 48z"/>
<path d="M1650 1104 c-31 -82 -38 -109 -29 -120 18 -21 38 -17 49 11 8 21 16
25 47 25 30 0 40 -5 48 -22 12 -27 48 -31 53 -6 2 10 -13 63 -33 118 -35 94
-39 100 -65 100 -27 0 -31 -6 -70 -106z m82 -9 c4 -19 1 -25 -13 -25 -21 0
-22 4 -13 37 8 28 20 22 26 -12z"/>
<path d="M1881 1196 c-13 -7 -30 -24 -37 -37 -18 -32 -17 -103 1 -138 37 -73
185 -61 185 16 0 29 -30 31 -55 3 -38 -42 -85 -14 -85 50 0 64 47 92 85 50 32
-35 62 -21 51 24 -10 42 -94 60 -145 32z"/>
<path d="M2067 1203 c-4 -3 -7 -55 -7 -115 0 -88 3 -110 15 -114 8 -4 22 -1
30 6 19 16 22 199 3 218 -13 13 -31 16 -41 5z"/>
<path d="M2412 1198 c-19 -19 -16 -202 3 -218 31 -26 45 -5 45 67 l0 68 46
-72 c45 -72 67 -86 92 -61 14 14 17 195 3 216 -5 8 -17 12 -27 10 -16 -3 -19
-14 -22 -73 l-3 -69 -45 72 c-45 71 -67 85 -92 60z"/>
<path d="M2753 1204 c-9 -4 -13 -37 -13 -115 0 -89 3 -111 15 -115 24 -10 45
15 45 52 0 34 1 34 45 34 54 0 85 25 85 69 0 52 -29 75 -101 78 -35 1 -70 0
-76 -3z m112 -69 c0 -15 -8 -21 -32 -23 -30 -3 -33 -1 -33 23 0 24 3 26 33 23
24 -2 32 -8 32 -23z"/>
<path d="M2993 1190 c-41 -25 -59 -82 -43 -140 27 -99 170 -109 215 -14 19 41
16 91 -10 131 -30 46 -107 57 -162 23z m113 -55 c17 -27 14 -76 -7 -102 -15
-17 -50 -17 -73 0 -23 16 -27 87 -7 111 21 25 68 20 87 -9z"/>
<path d="M3216 1194 c-19 -18 -23 -173 -6 -205 22 -39 60 -10 60 45 0 24 3 26
44 26 36 0 48 5 65 26 34 43 26 86 -20 109 -38 20 -123 20 -143 -1z m114 -49
c17 -20 4 -35 -31 -35 -24 0 -29 4 -29 25 0 20 5 25 24 25 13 0 29 -7 36 -15z"/>
<path d="M3426 1195 c-3 -9 -6 -50 -6 -92 0 -69 2 -77 29 -104 34 -33 83 -39
130 -14 37 19 41 31 41 131 0 66 -3 86 -15 90 -31 12 -44 -15 -47 -99 -3 -80
-4 -82 -29 -85 -38 -4 -48 15 -51 103 -3 73 -5 80 -24 83 -13 2 -24 -4 -28
-13z"/>
<path d="M3667 1204 c-9 -10 -9 -212 1 -217 4 -3 52 -7 107 -8 96 -4 100 -3
110 19 8 17 18 22 48 22 31 0 39 -4 47 -25 11 -28 31 -32 49 -11 9 11 3 37
-26 117 -34 94 -41 104 -65 107 -31 4 -40 -11 -79 -121 -21 -58 -27 -67 -44
-63 -11 3 -37 6 -57 6 l-37 0 -3 88 c-3 79 -5 87 -23 90 -12 2 -24 0 -28 -4z
m282 -121 c1 -7 -8 -13 -18 -13 -18 0 -19 3 -9 32 10 28 12 30 19 12 4 -10 8
-25 8 -31z"/>
<path d="M4066 1194 c-22 -22 -23 -196 -1 -214 26 -21 45 -4 45 40 l0 41 38
-3 c34 -3 37 -6 40 -35 6 -62 63 -72 61 -11 0 18 -4 42 -8 53 -4 10 -3 31 2
45 16 41 2 76 -34 89 -47 16 -125 14 -143 -5z m122 -61 c3 -21 -1 -23 -37 -23
-37 0 -41 2 -41 26 0 23 3 25 38 22 30 -2 38 -7 40 -25z"/>
</g>
</svg>
